:FULLY-SPECIFIED
:FORCE-ALL-JOINTS-BE-3DOF
:DEGREES
3058
root -1.58971 15.9202 -34.0846 1086.2 2.76221 1.88132
lfemur -36.3538 3.48215 -5.06233
ltibia 59.9053 0 0
lfoot -11.6545 -0.745616 0
ltoes -41.821 0 0
rfemur -36.4797 -3.65956 25.1281
rtibia 62.3017 0 0
rfoot -19.351 -27.8849 0
rtoes -5.06051 0 0
lowerback 13.2332 0.190515 -0.963444
upperback -1.03494 0.224632 1.47788
thorax -8.57635 0.194211 2.07995
lowerneck 3.70693 -8.77037 -11.6892
upperneck -2.98233 -12.0162 9.82968
head -0.198943 -6.07033 4.79178
lclavicle -1.40266e-14 -1.63218e-14 0
lhumerus 13.5014 -45.4254 88.2351
lradius 69.7894 0 0
lwrist 0.660141 0 0
lhand -28.2205 397.052 0
lfingers 7.12502 0 0
lthumb -1.59886 -652.973 0
rclavicle -1.40266e-14 -1.63218e-14 0
rhumerus 17.5188 49.3757 -53.8378
rradius 106.691 0 0
rwrist -44.4175 0 0
rhand -6.68682 -400.592 0
rfingers 7.12502 0 0
rthumb 19.1754 290.271 0
3059
root -1.55458 15.9281 -34.0732 1086.33 3.29091 1.72031
lfemur -36.0092 3.49187 -4.9386
ltibia 58.9939 0 0
lfoot -11.9008 -1.09581 0
ltoes -42.3637 0 0
rfemur -36.3363 -3.68585 24.911
rtibia 62.2292 0 0
rfoot -19.3511 -27.8056 0
rtoes -5.07805 0 0
lowerback 13.1965 0.192095 -0.925416
upperback -1.05029 0.233707 1.48058
thorax -8.57049 0.196515 2.0585
lowerneck 3.62171 -8.65303 -11.6147
upperneck -2.89605 -11.8524 9.7537
head -0.182691 -5.98672 4.75735
lclavicle -1.25398e-14 -1.70065e-14 0
lhumerus 12.5185 -45.5585 88.5592
lradius 70.1193 0 0
lwrist 0.760372 0 0
lhand -28.2287 397.206 0
lfingers 7.12502 0 0
lthumb -1.60684 -652.819 0
rclavicle -1.25398e-14 -1.70065e-14 0
rhumerus 16.0644 49.7831 -54.4242
rradius 107.136 0 0
rwrist -44.1177 0 0
rhand -6.7536 -400.785 0
rfingers 7.12502 0 0
rthumb 19.111 290.075 0
3060
root -1.51952 15.9363 -34.0623 1086.44 3.80227 1.57121
lfemur -35.6698 3.49717 -4.82461
ltibia 58.1155 0 0
lfoot -12.1405 -1.42347 0
ltoes -42.8775 0 0
rfemur -36.1906 -3.70989 24.6992
rtibia 62.1472 0 0
rfoot -19.3468 -27.7251 0
rtoes -5.10499 0 0
lowerback 13.1571 0.194008 -0.88874
upperback -1.06629 0.24298 1.48358
thorax -8.56387 0.199027 2.03823
lowerneck 3.53641 -8.53972 -11.5419
upperneck -2.80976 -11.6941 9.67913
head -0.165625 -5.90588 4.72375
lclavicle -1.11282e-14 -1.76477e-14 0
lhumerus 11.5517 -45.6776 88.8771
lradius 70.4303 0 0
lwrist 0.85239 0 0
lhand -28.2393 397.35 0
lfingers 7.12502 0 0
lthumb -1.61704 -652.676 0
rclavicle -1.11282e-14 -1.76477e-14 0
rhumerus 14.6445 50.1553 -55.0046
rradius 107.541 0 0
rwrist -43.8045 0 0
rhand -6.83418 -400.961 0
rfingers 7.12502 0 0
rthumb 19.0332 289.897 0
3061
root -1.48454 15.9448 -34.0519 1086.54 4.29607 1.43607
lfemur -35.3359 3.49771 -4.72113
ltibia 57.2734 0 0
lfoot -12.3733 -1.72696 0
ltoes -43.36 0 0
rfemur -36.0429 -3.73144 24.4932
rtibia 62.0551 0 0
rfoot -19.3376 -27.6434 0
rtoes -5.14184 0 0
lowerback 13.1149 0.196185 -0.853572
upperback -1.08293 0.252331 1.4869
thorax -8.55641 0.201701 2.01931
lowerneck 3.45123 -8.43101 -11.4711
upperneck -2.72363 -11.5419 9.60629
head -0.147728 -5.82819 4.69111
lclavicle -9.7991e-15 -1.82426e-14 0
lhumerus 10.603 -45.7825 89.1882
lradius 70.7208 0 0
lwrist 0.93562 0 0
lhand -28.2523 397.482 0
lfingers 7.12502 0 0
lthumb -1.62958 -652.544 0
rclavicle -9.7991e-15 -1.82426e-14 0
rhumerus 13.2631 50.4902 -55.5775
rradius 107.903 0 0
rwrist -43.4772 0 0
rhand -6.92909 -401.117 0
rfingers 7.12502 0 0
rthumb 18.9416 289.737 0
3062
root -1.44965 15.9537 -34.0421 1086.62 4.77208 1.31695
lfemur -35.0077 3.49318 -4.62894
ltibia 56.4709 0 0
lfoot -12.5985 -2.00463 0
ltoes -43.8092 0 0
rfemur -35.8931 -3.75029 24.2933
rtibia 61.9521 0 0
rfoot -19.3231 -27.5604 0
rtoes -5.1891 0 0
lowerback 13.0696 0.198557 -0.820069
upperback -1.10021 0.261643 1.49057
thorax -8.54802 0.204493 2.0019
lowerneck 3.36635 -8.32744 -11.4028
upperneck -2.63783 -11.3968 9.53546
head -0.128981 -5.75405 4.65958
lclavicle -8.56008e-15 -1.87881e-14 0
lhumerus 9.67479 -45.8733 89.4917
lradius 70.9891 0 0
lwrist 1.00949 0 0
lhand -28.2678 397.602 0
lfingers 7.12502 0 0
lthumb -1.64457 -652.424 0
rclavicle -8.56008e-15 -1.87881e-14 0
rhumerus 11.9243 50.786 -56.1417
rradius 108.222 0 0
rwrist -43.135 0 0
rhand -7.03887 -401.253 0
rfingers 7.12502 0 0
rthumb 18.8357 289.597 0
3063
root -1.41484 15.963 -34.0331 1086.68 5.23007 1.21591
lfemur -34.6858 3.48322 -4.54879
ltibia 55.7113 0 0
lfoot -12.8159 -2.25483 0
ltoes -44.2229 0 0
rfemur -35.7413 -3.76619 24.1
rtibia 61.8375 0 0
rfoot -19.3029 -27.4759 0
rtoes -5.24726 0 0
lowerback 13.0212 0.201056 -0.788387
upperback -1.1181 0.270794 1.49465
thorax -8.53861 0.207358 1.98617
lowerneck 3.28194 -8.22956 -11.3372
upperneck -2.55251 -11.2594 9.46694
head -0.109368 -5.68382 4.6293
lclavicle -7.41853e-15 -1.92815e-14 0
lhumerus 8.76919 -45.95 89.7872
lradius 71.2335 0 0
lwrist 1.07342 0 0
lhand -28.286 397.71 0
lfingers 7.12502 0 0
lthumb -1.66211 -652.316 0
rclavicle -7.41853e-15 -1.92815e-14 0
rhumerus 10.6322 51.0408 -56.6956
rradius 108.493 0 0
rwrist -42.7774 0 0
rhand -7.16406 -401.367 0
rfingers 7.12502 0 0
rthumb 18.7149 289.478 0
3064
root -1.38012 15.9727 -34.0249 1086.72 5.66981 1.13499
lfemur -34.3705 3.46752 -4.48146
ltibia 54.998 0 0
lfoot -13.0251 -2.47592 0
ltoes -44.5989 0 0
rfemur -35.5876 -3.77894 23.9137
rtibia 61.7108 0 0
rfoot -19.2764 -27.3898 0
rtoes -5.31682 0 0
lowerback 12.9694 0.203611 -0.758684
upperback -1.13661 0.279666 1.49915
thorax -8.5281 0.210251 1.97228
lowerneck 3.19819 -8.13793 -11.2747
upperneck -2.46783 -11.1305 9.40103
head -0.0888686 -5.6179 4.60043
lclavicle -6.38188e-15 -1.97196e-14 0
lhumerus 7.88839 -46.0123 90.074
lradius 71.4522 0 0
lwrist 1.12684 0 0
lhand -28.3069 397.805 0
lfingers 7.12502 0 0
lthumb -1.68231 -652.222 0
rclavicle -6.38188e-15 -1.97196e-14 0
rhumerus 9.39084 51.2527 -57.238
rradius 108.714 0 0
rwrist -42.4036 0 0
rhand -7.30519 -401.459 0
rfingers 7.12502 0 0
rthumb 18.5787 289.381 0
3065
root -1.34551 15.9829 -34.0177 1086.74 6.09107 1.07626
lfemur -34.062 3.44574 -4.42771
ltibia 54.3342 0 0
lfoot -13.2255 -2.66625 0
ltoes -44.9349 0 0
rfemur -35.4322 -3.78829 23.7349
rtibia 61.5713 0 0
rfoot -19.2433 -27.3022 0
rtoes -5.39828 0 0
lowerback 12.9142 0.206153 -0.731114
upperback -1.15572 0.288139 1.50411
thorax -8.51639 0.213128 1.9604
lowerneck 3.11528 -8.05309 -11.2154
upperneck -2.38398 -11.0108 9.33802
head -0.0674665 -5.55667 4.5731
lclavicle -5.45757e-15 -2.00997e-14 0
lhumerus 7.0346 -46.0604 90.3515
lradius 71.6435 0 0
lwrist 1.16917 0 0
lhand -28.3307 397.886 0
lfingers 7.12502 0 0
lthumb -1.70528 -652.141 0
rclavicle -5.45757e-15 -2.00997e-14 0
rhumerus 8.20437 51.4197 -57.7673
rradius 108.883 0 0
rwrist -42.0128 0 0
rhand -7.46281 -401.528 0
rfingers 7.12502 0 0
rthumb 18.4266 289.306 0
3066
root -1.311 15.9935 -34.0115 1086.74 6.49362 1.04176
lfemur -33.7609 3.41755 -4.38831
ltibia 53.7234 0 0
lfoot -13.4168 -2.82417 0
ltoes -45.2289 0 0
rfemur -35.275 -3.79401 23.5639
rtibia 61.4182 0 0
rfoot -19.203 -27.2128 0
rtoes -5.49213 0 0
lowerback 12.8553 0.208615 -0.705836
upperback -1.17541 0.296095 1.50956
thorax -8.50339 0.215944 1.95069
lowerneck 3.03339 -7.97559 -11.1599
upperneck -2.3011 -10.9011 9.27822
head -0.0451434 -5.5005 4.54746
lclavicle -4.65303e-15 -2.04186e-14 0
lhumerus 6.21001 -46.0942 90.619
lradius 71.8057 0 0
lwrist 1.19984 0 0
lhand -28.3574 397.953 0
lfingers 7.12502 0 0
lthumb -1.73113 -652.075 0
rclavicle -4.65303e-15 -2.04186e-14 0
rhumerus 7.07684 51.5399 -58.2823
rradius 108.997 0 0
rwrist -41.6044 0 0
rhand -7.63746 -401.572 0
rfingers 7.12502 0 0
rthumb 18.2581 289.255 0
3067
root -1.2766 16.0047 -34.0064 1086.71 6.87724 1.03356
lfemur -33.4673 3.38261 -4.36404
ltibia 53.1688 0 0
lfoot -13.5986 -2.94804 0
ltoes -45.4786 0 0
rfemur -35.1161 -3.79589 23.4013
rtibia 61.251 0 0
rfoot -19.1551 -27.1216 0
rtoes -5.59888 0 0
lowerback 12.7927 0.210926 -0.683006
upperback -1.19568 0.303413 1.51555
thorax -8.48902 0.218655 1.94332
lowerneck 2.9527 -7.90599 -11.1084
upperneck -2.21936 -10.8022 9.22192
head -0.0218814 -5.44978 4.52366
lclavicle -3.97569e-15 -2.06736e-14 0
lhumerus 5.41681 -46.1136 90.8759
lradius 71.9371 0 0
lwrist 1.21828 0 0
lhand -28.3873 398.004 0
lfingers 7.12502 0 0
lthumb -1.75997 -652.024 0
rclavicle -3.97569e-15 -2.06736e-14 0
rhumerus 6.01232 51.6115 -58.7815
rradius 109.053 0 0
rwrist -41.1777 0 0
rhand -7.82966 -401.591 0
rfingers 7.12502 0 0
rthumb 18.0727 289.229 0
3068
root -1.24209 16.0163 -34.0016 1086.67 7.23644 1.03675
lfemur -33.1787 3.34167 -4.35275
ltibia 52.6506 0 0
lfoot -13.7732 -3.04279 0
ltoes -45.6918 0 0
rfemur -34.9526 -3.7956 23.2441
rtibia 61.0706 0 0
rfoot -19.102 -27.0281 0
rtoes -5.72083 0 0
lowerback 12.7259 0.214102 -0.661419
upperback -1.2171 0.311641 1.52193
thorax -8.47364 0.221919 1.93706
lowerneck 2.87085 -7.84003 -11.0579
upperneck -2.13735 -10.7081 9.16607
head 0.00246464 -5.40152 4.50046
lclavicle -3.37827e-15 -2.08705e-14 0
lhumerus 4.63359 -46.112 91.1289
lradius 72.049 0 0
lwrist 1.22671 0 0
lhand -28.4203 398.042 0
lfingers 7.12502 0 0
lthumb -1.79187 -651.987 0
rclavicle -3.37827e-15 -2.08705e-14 0
rhumerus 4.97701 51.6352 -59.283
rradius 109.062 0 0
rwrist -40.7295 0 0
rhand -8.04472 -401.582 0
rfingers 7.12502 0 0
rthumb 17.8652 289.229 0
3069
root -1.20725 16.0283 -33.9962 1086.63 7.56652 1.0352
lfemur -32.8922 3.29582 -4.35154
ltibia 52.1465 0 0
lfoot -13.9432 -3.11501 0
ltoes -45.8783 0 0
rfemur -34.7817 -3.79495 23.0889
rtibia 60.879 0 0
rfoot -19.0466 -26.9319 0
rtoes -5.85945 0 0
lowerback 12.6549 0.219155 -0.639783
upperback -1.2402 0.322339 1.52854
thorax -8.45769 0.226392 1.93057
lowerneck 2.78548 -7.77316 -11.0055
upperneck -2.05358 -10.6126 9.10751
head 0.0280039 -5.35251 4.47655
lclavicle -2.80834e-15 -2.10183e-14 0
lhumerus 3.83809 -46.0834 91.3847
lradius 72.1537 0 0
lwrist 1.22787 0 0
lhand -28.4565 398.068 0
lfingers 7.12502 0 0
lthumb -1.82675 -651.961 0
rclavicle -2.80834e-15 -2.10183e-14 0
rhumerus 3.93498 51.6141 -59.8052
rradius 109.037 0 0
rwrist -40.2579 0 0
rhand -8.28675 -401.546 0
rfingers 7.12502 0 0
rthumb 17.6317 289.256 0
3070
root -1.17211 16.0406 -33.9901 1086.59 7.86844 1.02905
lfemur -32.6078 3.24526 -4.35999
ltibia 51.6562 0 0
lfoot -14.1087 -3.16551 0
ltoes -46.0391 0 0
rfemur -34.6036 -3.79393 22.936
rtibia 60.6764 0 0
rfoot -18.9888 -26.8331 0
rtoes -6.01396 0 0
lowerback 12.5797 0.226009 -0.618118
upperback -1.26491 0.335403 1.53536
thorax -8.4412 0.232025 1.92388
lowerneck 2.69673 -7.70545 -10.9512
upperneck -1.96808 -10.5157 9.0464
head 0.0547004 -5.30282 4.45198
lclavicle -2.26558e-15 -2.11191e-14 0
lhumerus 3.03123 -46.0288 91.643
lradius 72.2514 0 0
lwrist 1.222 0 0
lhand -28.4956 398.083 0
lfingers 7.12502 0 0
lthumb -1.86452 -651.947 0
rclavicle -2.26558e-15 -2.11191e-14 0
rhumerus 2.88713 51.5498 -60.3467
rradius 108.979 0 0
rwrist -39.7639 0 0
rhand -8.55455 -401.484 0
rfingers 7.12502 0 0
rthumb 17.3734 289.307 0
3071
root -1.13671 16.0533 -33.9835 1086.56 8.14316 1.01847
lfemur -32.3256 3.19019 -4.3777
ltibia 51.1793 0 0
lfoot -14.2697 -3.19513 0
ltoes -46.1751 0 0
rfemur -34.4188 -3.79251 22.7852
rtibia 60.4634 0 0
rfoot -18.9289 -26.732 0
rtoes -6.1836 0 0
lowerback 12.5006 0.234588 -0.596447
upperback -1.29116 0.350732 1.54238
thorax -8.42421 0.238768 1.91701
lowerneck 2.60476 -7.63698 -10.895
upperneck -1.8809 -10.4175 8.98288
head 0.0825179 -5.25251 4.42677
lclavicle -1.74969e-15 -2.11746e-14 0
lhumerus 2.21394 -45.9491 91.9035
lradius 72.342 0 0
lwrist 1.20931 0 0
lhand -28.5375 398.087 0
lfingers 7.12502 0 0
lthumb -1.90506 -651.943 0
rclavicle -1.74969e-15 -2.11746e-14 0
rhumerus 1.83435 51.444 -60.9064
rradius 108.889 0 0
rwrist -39.2485 0 0
rhand -8.84691 -401.396 0
rfingers 7.12502 0 0
rthumb 17.0913 289.383 0
